<?xml version="1.0" encoding="utf-8"?>
<!-- Generator: Adobe Illustrator 23.0.5, SVG Export Plug-In . SVG Version: 6.00 Build 0)  -->
<svg version="1.1" id="Layer_1" xmlns="http://www.w3.org/2000/svg" xmlns:xlink="http://www.w3.org/1999/xlink" x="0px" y="0px"
	 viewBox="0 0 50 50" style="enable-background:new 0 0 50 50;" xml:space="preserve">
<style type="text/css">
	.st0{fill:none;stroke:#E1BA6D;stroke-width:2;stroke-linecap:round;stroke-miterlimit:10;}
	.st1{fill:none;}
	.st2{fill:#E1BA6D;}
</style>
<circle class="st0" cx="25" cy="25" r="24"/>
<rect class="st1" width="50" height="50"/>
<path class="st2" d="M23.8,16.2c-0.2,0-0.4-0.1-0.4-0.4v-2.6c0-0.2,0.1-0.4,0.4-0.4h2.4c0.2,0,0.4,0.1,0.4,0.4v2.6
	c0,0.2-0.1,0.4-0.4,0.4H23.8z M23.9,37.3c-0.2,0-0.4-0.1-0.4-0.4V20.5c0-0.2,0.1-0.4,0.4-0.4h2.3c0.2,0,0.4,0.1,0.4,0.4v16.5
	c0,0.2-0.1,0.4-0.4,0.4H23.9z"/>
</svg>
